<svg viewBox="0 0 153 153" fill="none" xmlns="http://www.w3.org/2000/svg">
<circle opacity="0.133996" cx="76.5" cy="76.5" r="76.5" fill="#D8D8D8"/>
<path fill-rule="evenodd" clip-rule="evenodd" d="M117.466 48H77.057H76.942H36.534C34.034 48 32 50.034 32 52.534V101.276C32 103.776 34.034 105.81 36.534 105.81H73.763H76.996H117.466C119.966 105.81 122 103.776 122 101.276V52.534C122 50.034 119.966 48 117.466 48ZM76.946 51.4H77.053H115.761L76.999 81.433L38.238 51.4H76.946ZM117.466 102.409C118.09 102.409 118.6 101.901 118.6 101.276V53.804L88.195 77.361L109.272 93.718L109.256 93.732C109.59 94.068 109.796 94.53 109.796 95.041C109.796 96.069 108.964 96.901 107.937 96.901C107.427 96.901 106.964 96.695 106.628 96.362L106.626 96.364L85.22 79.666L78.801 84.639C78.321 85.063 77.695 85.331 76.999 85.331C76.304 85.331 75.677 85.064 75.196 84.639L68.779 79.667L47.373 96.364L47.371 96.362C47.035 96.695 46.573 96.901 46.062 96.901C45.036 96.901 44.203 96.069 44.203 95.041C44.203 94.53 44.41 94.068 44.743 93.732L44.729 93.718L65.804 77.361L35.4 53.804V101.276C35.4 101.901 35.909 102.409 36.534 102.409H73.904H79.626H117.466Z" fill="#ACD9B2"/>
</svg>
